#define c4f919dc7e6c49b0c89fdb95f1b0866aqBpc4W2hBBCOlJXM_width 64
#define c4f919dc7e6c49b0c89fdb95f1b0866aqBpc4W2hBBCOlJXM_height 61
static char c4f919dc7e6c49b0c89fdb95f1b0866aqBpc4W2hBBCOlJXM_bits[] = {
  0x00, 0x00, 0x00, 0x00, 0x00, 0x00, 0x00, 0x00, 0x00, 0x00, 0x00, 0x00, 
  0x00, 0x00, 0x00, 0x00, 0x00, 0x00, 0x00, 0x00, 0x00, 0x00, 0x00, 0x00, 
  0x00, 0x00, 0x00, 0x00, 0x00, 0x00, 0x00, 0x00, 0x00, 0x00, 0x00, 0x00, 
  0x00, 0x00, 0x00, 0x00, 0x00, 0x00, 0x00, 0x00, 0x00, 0x00, 0x00, 0x00, 
  0x00, 0x00, 0x00, 0x00, 0x00, 0x00, 0x00, 0x00, 0x00, 0x00, 0x00, 0x00, 
  0x00, 0x00, 0x00, 0x00, 0x00, 0x00, 0x00, 0x00, 0x00, 0x00, 0x00, 0x00, 
  0x00, 0x00, 0x00, 0x00, 0x00, 0x00, 0x00, 0x00, 0x00, 0x00, 0x00, 0x00, 
  0x00, 0x00, 0x00, 0x00, 0x00, 0x00, 0x00, 0x00, 0x00, 0x00, 0x00, 0x00, 
  0x00, 0x00, 0x00, 0x00, 0x00, 0x00, 0x00, 0x00, 0x00, 0x00, 0x00, 0x00, 
  0x00, 0x00, 0x00, 0x00, 0x00, 0x00, 0x00, 0x00, 0x00, 0x00, 0x00, 0x00, 
  0x50, 0x00, 0x00, 0x00, 0x00, 0x00, 0x10, 0x00, 0x00, 0x00, 0x00, 0x00, 
  0x00, 0x00, 0x00, 0x00, 0x50, 0x00, 0x00, 0x00, 0x00, 0x00, 0x40, 0x01, 
  0x00, 0x00, 0x00, 0x00, 0x00, 0x00, 0x20, 0x00, 0x40, 0x15, 0x01, 0x00, 
  0x03, 0x00, 0x51, 0x01, 0x00, 0x00, 0x00, 0x20, 0x02, 0x80, 0x80, 0x02, 
  0x40, 0x44, 0x00, 0x1C, 0x1C, 0x40, 0x55, 0x01, 0x00, 0x00, 0x00, 0x0A, 
  0x00, 0x00, 0xAA, 0x02, 0x00, 0x55, 0x00, 0x55, 0x55, 0x01, 0x77, 0x03, 
  0x00, 0x00, 0x00, 0x08, 0x88, 0x00, 0xAA, 0x02, 0x00, 0x44, 0x40, 0x45, 
  0x55, 0x05, 0xFD, 0x01, 0x00, 0x00, 0x80, 0xE2, 0xAB, 0x02, 0xAA, 0x02, 
  0x00, 0x55, 0x50, 0xFD, 0x5F, 0x15, 0xFF, 0x01, 0x00, 0x00, 0x80, 0xEE, 
  0xAE, 0x0A, 0x2A, 0x00, 0x00, 0x04, 0x50, 0xFF, 0x7F, 0x1D, 0x5C, 0x00, 
  0x00, 0x00, 0xA8, 0xFE, 0xFF, 0x0A, 0x00, 0x00, 0x00, 0x00, 0x70, 0xFF, 
  0xFF, 0x3F, 0x00, 0x00, 0x00, 0x00, 0xA8, 0xEE, 0xEE, 0x2E, 0x00, 0x00, 
  0x00, 0x00, 0xD0, 0xFF, 0xFF, 0x7F, 0x00, 0x00, 0x00, 0x00, 0xA8, 0xFF, 
  0xFF, 0x3F, 0x00, 0x00, 0x00, 0x00, 0xF0, 0xFF, 0xFF, 0x3F, 0x00, 0x00, 
  0x00, 0x00, 0xE8, 0xEE, 0xEE, 0x2E, 0x00, 0x00, 0x00, 0x00, 0xF8, 0xFF, 
  0xFF, 0x1F, 0x00, 0x00, 0x00, 0x00, 0xF8, 0xBF, 0xFF, 0x3F, 0x00, 0x00, 
  0x00, 0x00, 0xF0, 0xFF, 0xFF, 0x1F, 0x00, 0x00, 0x00, 0x00, 0xE0, 0xEE, 
  0xEE, 0x0E, 0x00, 0x00, 0x00, 0x00, 0xF0, 0xFF, 0xFF, 0x1F, 0x00, 0x00, 
  0x00, 0x00, 0xE0, 0xFF, 0xFF, 0x0F, 0x00, 0x00, 0x00, 0x00, 0xF0, 0xFF, 
  0xFF, 0x1F, 0x00, 0x00, 0x00, 0x00, 0xA0, 0xEE, 0xEE, 0x0E, 0x00, 0x00, 
  0x00, 0x00, 0x00, 0xFF, 0xFF, 0x05, 0x00, 0x00, 0x00, 0x00, 0x00, 0xFA, 
  0x3F, 0x00, 0x00, 0x00, 0x00, 0x00, 0x00, 0x70, 0x17, 0x00, 0x00, 0x00, 
  0x00, 0x00, 0x00, 0x00, 0x00, 0x00, 0x00, 0x00, 0x00, 0x00, 0x00, 0x00, 
  0x00, 0x00, 0x00, 0x00, 0x00, 0x00, 0x00, 0x00, 0x00, 0x00, 0x00, 0x00, 
  0x00, 0x00, 0x00, 0x00, 0x00, 0x00, 0x00, 0x00, 0x00, 0x00, 0x00, 0x00, 
  0x00, 0x00, 0x00, 0x00, 0x00, 0x00, 0x00, 0x00, 0x00, 0x00, 0x00, 0x00, 
  0x00, 0x00, 0x00, 0x00, 0x00, 0x00, 0x00, 0x00, 0x00, 0x00, 0x00, 0x00, 
  0x00, 0x00, 0x00, 0x00, 0x00, 0x00, 0x00, 0x00, 0x00, 0x00, 0x00, 0x00, 
  0x00, 0x00, 0x00, 0x00, 0x00, 0x00, 0x00, 0x00, 0x00, 0x00, 0x00, 0x00, 
  0x00, 0x00, 0x00, 0x00, 0x00, 0x00, 0x00, 0x00, 0x00, 0x00, 0x00, 0x00, 
  0x00, 0x00, 0x00, 0x00, 0x00, 0x00, 0x00, 0x00, };
