#define dcd92c5cee924da7ca48811d4fcf2c4ef56xekFXzOZjELAn_width 64
#define dcd92c5cee924da7ca48811d4fcf2c4ef56xekFXzOZjELAn_height 61
static char dcd92c5cee924da7ca48811d4fcf2c4ef56xekFXzOZjELAn_bits[] = {
  0x00, 0x00, 0x00, 0x00, 0x00, 0x00, 0x00, 0x00, 0x00, 0x00, 0x00, 0x00, 
  0x00, 0x00, 0x00, 0x00, 0x00, 0x00, 0x00, 0x00, 0x00, 0x00, 0x00, 0x00, 
  0x00, 0x00, 0x00, 0x00, 0x00, 0x00, 0x00, 0x00, 0x00, 0x00, 0x00, 0x00, 
  0x00, 0x00, 0x00, 0x00, 0x00, 0x00, 0x00, 0x00, 0x00, 0x00, 0x00, 0x00, 
  0x00, 0x00, 0x00, 0x00, 0x00, 0x00, 0x00, 0x00, 0x00, 0x00, 0x00, 0x00, 
  0x00, 0x00, 0x00, 0x00, 0x00, 0x00, 0x00, 0x00, 0x00, 0x00, 0x00, 0x00, 
  0x00, 0x00, 0x00, 0x00, 0x00, 0x00, 0x00, 0x00, 0x00, 0x00, 0x00, 0x00, 
  0x00, 0x00, 0x00, 0x00, 0x00, 0x00, 0x00, 0x00, 0x00, 0x00, 0x00, 0x00, 
  0x00, 0x00, 0x00, 0x00, 0x00, 0x00, 0x00, 0x00, 0x00, 0x00, 0x00, 0x00, 
  0x00, 0x00, 0x00, 0x00, 0x00, 0x00, 0x00, 0x00, 0x00, 0x00, 0x00, 0x00, 
  0x50, 0x00, 0x00, 0x00, 0x00, 0x00, 0x50, 0x00, 0x00, 0x00, 0x00, 0x00, 
  0x00, 0x00, 0x80, 0x00, 0x50, 0x00, 0x00, 0x00, 0x00, 0x00, 0x40, 0x01, 
  0x00, 0x00, 0x00, 0x00, 0x00, 0x00, 0xA0, 0x02, 0x40, 0x11, 0x01, 0x30, 
  0x03, 0x00, 0xF1, 0x03, 0x00, 0x00, 0x00, 0x20, 0x0A, 0x80, 0xA2, 0x02, 
  0x40, 0x44, 0x00, 0x1C, 0x5C, 0xC0, 0xF7, 0x03, 0x00, 0x00, 0x00, 0x02, 
  0xAA, 0x80, 0xBA, 0x03, 0x00, 0x55, 0x00, 0x55, 0x77, 0x01, 0xFF, 0x03, 
  0x00, 0x00, 0x80, 0x88, 0xAA, 0x02, 0xEE, 0x02, 0x00, 0x44, 0x40, 0xD5, 
  0xD5, 0x05, 0xFF, 0x03, 0x00, 0x00, 0xA0, 0xFA, 0xAF, 0x0A, 0xFF, 0x01, 
  0x00, 0x55, 0x70, 0xFF, 0xFF, 0x1F, 0xFF, 0x01, 0x00, 0x08, 0xA0, 0xEE, 
  0xAE, 0x0A, 0x2E, 0x00, 0x00, 0x14, 0xF0, 0xFF, 0xFF, 0x1F, 0x5C, 0x00, 
  0x00, 0x00, 0xB8, 0xFF, 0xFF, 0x3F, 0x00, 0x00, 0x00, 0x00, 0xF8, 0xFF, 
  0xFF, 0x3F, 0x00, 0x00, 0x00, 0x00, 0xE8, 0xEE, 0xEE, 0x2E, 0x00, 0x00, 
  0x00, 0x00, 0xF8, 0xFF, 0xFF, 0x7F, 0x00, 0x00, 0x00, 0x00, 0xF8, 0xFF, 
  0xFF, 0x3F, 0x00, 0x00, 0x00, 0x00, 0xF8, 0xFF, 0xFF, 0x3F, 0x00, 0x00, 
  0x00, 0x00, 0xE8, 0xEE, 0xEE, 0x2E, 0x00, 0x00, 0x00, 0x00, 0xF8, 0xFF, 
  0xFF, 0x1F, 0x00, 0x00, 0x00, 0x00, 0xF8, 0xFF, 0xFF, 0x1F, 0x00, 0x00, 
  0x00, 0x00, 0xF0, 0xFF, 0xFF, 0x1F, 0x00, 0x00, 0x00, 0x00, 0xE0, 0xEE, 
  0xEE, 0x0E, 0x00, 0x00, 0x00, 0x00, 0xF0, 0xFF, 0xFF, 0x1F, 0x00, 0x00, 
  0x00, 0x00, 0xE0, 0xFF, 0xFF, 0x0F, 0x00, 0x00, 0x00, 0x00, 0xF0, 0xFF, 
  0xFF, 0x1F, 0x00, 0x00, 0x00, 0x00, 0x80, 0xEE, 0xEE, 0x0E, 0x00, 0x00, 
  0x00, 0x00, 0x00, 0xFF, 0x7F, 0x04, 0x00, 0x00, 0x00, 0x00, 0x00, 0xF8, 
  0x3F, 0x00, 0x00, 0x00, 0x00, 0x00, 0x00, 0x50, 0x15, 0x00, 0x00, 0x00, 
  0x00, 0x00, 0x00, 0x00, 0x00, 0x00, 0x00, 0x00, 0x00, 0x00, 0x00, 0x00, 
  0x00, 0x00, 0x00, 0x00, 0x00, 0x00, 0x00, 0x00, 0x00, 0x00, 0x00, 0x00, 
  0x00, 0x00, 0x00, 0x00, 0x00, 0x00, 0x00, 0x00, 0x00, 0x00, 0x00, 0x00, 
  0x00, 0x00, 0x00, 0x00, 0x00, 0x00, 0x00, 0x00, 0x00, 0x00, 0x00, 0x00, 
  0x00, 0x00, 0x00, 0x00, 0x00, 0x00, 0x00, 0x00, 0x00, 0x00, 0x00, 0x00, 
  0x00, 0x00, 0x00, 0x00, 0x00, 0x00, 0x00, 0x00, 0x00, 0x00, 0x00, 0x00, 
  0x00, 0x00, 0x00, 0x00, 0x00, 0x00, 0x00, 0x00, 0x00, 0x00, 0x00, 0x00, 
  0x00, 0x00, 0x00, 0x00, 0x00, 0x00, 0x00, 0x00, 0x00, 0x00, 0x00, 0x00, 
  0x00, 0x00, 0x00, 0x00, 0x00, 0x00, 0x00, 0x00, };
