#define 78ed4d05ce954a0fe9df43ad902582e9NrY46VAcYlkCWonI_width 64
#define 78ed4d05ce954a0fe9df43ad902582e9NrY46VAcYlkCWonI_height 61
static char 78ed4d05ce954a0fe9df43ad902582e9NrY46VAcYlkCWonI_bits[] = {
  0x00, 0x00, 0x00, 0x00, 0x00, 0x00, 0x00, 0x00, 0x00, 0x00, 0x00, 0x00, 
  0x00, 0x00, 0x00, 0x00, 0x00, 0x00, 0x00, 0x00, 0x00, 0x00, 0x00, 0x00, 
  0x00, 0x00, 0x00, 0x00, 0x00, 0x00, 0x00, 0x00, 0x00, 0x00, 0x00, 0x00, 
  0x00, 0x00, 0x00, 0x00, 0x00, 0x00, 0x00, 0x00, 0x00, 0x00, 0x00, 0x00, 
  0x00, 0x00, 0x00, 0x00, 0x00, 0x00, 0x00, 0x00, 0x00, 0x00, 0x00, 0x00, 
  0x00, 0x00, 0x00, 0x00, 0x00, 0x00, 0x00, 0x00, 0x00, 0x00, 0x00, 0x00, 
  0x00, 0x00, 0x00, 0x00, 0x00, 0x00, 0x00, 0x00, 0x00, 0x00, 0x00, 0x00, 
  0x00, 0x00, 0x00, 0x00, 0x00, 0x00, 0x00, 0x00, 0x00, 0x00, 0x00, 0x00, 
  0x00, 0x00, 0x00, 0x00, 0x00, 0x00, 0x00, 0x00, 0x00, 0x00, 0x00, 0x00, 
  0x00, 0x00, 0x40, 0x00, 0x00, 0x00, 0x00, 0x00, 0x00, 0x00, 0x20, 0x00, 
  0x10, 0x01, 0x00, 0x00, 0x00, 0x00, 0xF0, 0x01, 0x00, 0x00, 0x00, 0x00, 
  0x00, 0x00, 0xE0, 0x00, 0x40, 0x44, 0x01, 0x00, 0x00, 0x00, 0xF0, 0x01, 
  0x00, 0x02, 0x00, 0x00, 0x00, 0x00, 0xE0, 0x03, 0x40, 0x55, 0x01, 0x70, 
  0x07, 0xC0, 0xF3, 0x03, 0x80, 0x80, 0x00, 0xA0, 0x0E, 0x80, 0xE2, 0x02, 
  0x40, 0x55, 0x00, 0x5C, 0x7D, 0xC0, 0xF7, 0x03, 0x80, 0x2A, 0x00, 0xAA, 
  0xAA, 0x80, 0xFF, 0x03, 0x00, 0x55, 0x00, 0x7F, 0xFF, 0x03, 0xFF, 0x03, 
  0x00, 0x08, 0x80, 0xAA, 0xEA, 0x02, 0xEE, 0x02, 0x00, 0x55, 0xC0, 0xFF, 
  0xFF, 0x07, 0xFF, 0x03, 0x00, 0x2A, 0xA0, 0xFA, 0xBF, 0x0B, 0xFF, 0x01, 
  0x00, 0x77, 0xF0, 0xFF, 0xFF, 0x1F, 0xFF, 0x01, 0x00, 0x2A, 0xA0, 0xEE, 
  0xEE, 0x0E, 0x2E, 0x00, 0x00, 0x14, 0xF8, 0xFF, 0xFF, 0x1F, 0x1C, 0x00, 
  0x00, 0x00, 0xF8, 0xFF, 0xFF, 0x3F, 0x00, 0x00, 0x00, 0x00, 0xF8, 0xFF, 
  0xFF, 0x3F, 0x00, 0x00, 0x00, 0x00, 0xE8, 0xEE, 0xEE, 0x2E, 0x00, 0x00, 
  0x00, 0x00, 0xF8, 0xFF, 0xFF, 0x7F, 0x00, 0x00, 0x00, 0x00, 0xF8, 0xFF, 
  0xFF, 0x3F, 0x00, 0x00, 0x00, 0x00, 0xF8, 0xFF, 0xFF, 0x3F, 0x00, 0x00, 
  0x00, 0x00, 0xE8, 0xEE, 0xEE, 0x2E, 0x00, 0x00, 0x00, 0x00, 0xF8, 0xFF, 
  0xFF, 0x3F, 0x00, 0x00, 0x00, 0x00, 0xF8, 0xFF, 0xFF, 0x3F, 0x00, 0x00, 
  0x00, 0x00, 0xF0, 0xFF, 0xFF, 0x1F, 0x00, 0x00, 0x00, 0x00, 0xE0, 0xEE, 
  0xEE, 0x0E, 0x00, 0x00, 0x00, 0x00, 0xF0, 0xFF, 0xFF, 0x1F, 0x00, 0x00, 
  0x00, 0x00, 0xE0, 0xFF, 0xFF, 0x1F, 0x00, 0x00, 0x00, 0x00, 0xF0, 0xFF, 
  0xFF, 0x1F, 0x00, 0x00, 0x00, 0x00, 0x80, 0xEE, 0xEE, 0x02, 0x00, 0x00, 
  0x00, 0x00, 0x00, 0xFE, 0x7F, 0x00, 0x00, 0x00, 0x00, 0x00, 0x00, 0xF8, 
  0x3F, 0x00, 0x00, 0x00, 0x00, 0x00, 0x00, 0x40, 0x05, 0x00, 0x00, 0x00, 
  0x00, 0x00, 0x00, 0x00, 0x00, 0x00, 0x00, 0x00, 0x00, 0x00, 0x00, 0x00, 
  0x00, 0x00, 0x00, 0x00, 0x00, 0x00, 0x00, 0x00, 0x00, 0x00, 0x00, 0x00, 
  0x00, 0x00, 0x00, 0x00, 0x00, 0x00, 0x00, 0x00, 0x00, 0x00, 0x00, 0x00, 
  0x00, 0x00, 0x00, 0x00, 0x00, 0x00, 0x00, 0x00, 0x00, 0x00, 0x00, 0x00, 
  0x00, 0x00, 0x00, 0x00, 0x00, 0x00, 0x00, 0x00, 0x00, 0x00, 0x00, 0x00, 
  0x00, 0x00, 0x00, 0x00, 0x00, 0x00, 0x00, 0x00, 0x00, 0x00, 0x00, 0x00, 
  0x00, 0x00, 0x00, 0x00, 0x00, 0x00, 0x00, 0x00, 0x00, 0x00, 0x00, 0x00, 
  0x00, 0x00, 0x00, 0x00, 0x00, 0x00, 0x00, 0x00, 0x00, 0x00, 0x00, 0x00, 
  0x00, 0x00, 0x00, 0x00, 0x00, 0x00, 0x00, 0x00, };
