#define 6a00899d43f24c00a6475c75e9a31f2chBNofz7IlTDadPaD_width 64
#define 6a00899d43f24c00a6475c75e9a31f2chBNofz7IlTDadPaD_height 61
static char 6a00899d43f24c00a6475c75e9a31f2chBNofz7IlTDadPaD_bits[] = {
  0x00, 0x00, 0x00, 0x00, 0x00, 0x00, 0x00, 0x00, 0x00, 0x00, 0x00, 0x00, 
  0x00, 0x00, 0x00, 0x00, 0x00, 0x00, 0x00, 0x00, 0x00, 0x00, 0x00, 0x00, 
  0x00, 0x00, 0x00, 0x00, 0x00, 0x00, 0x00, 0x00, 0x00, 0x00, 0x00, 0x00, 
  0x00, 0x00, 0x00, 0x00, 0x00, 0x00, 0x00, 0x00, 0x00, 0x00, 0x00, 0x00, 
  0x00, 0x00, 0x00, 0x00, 0x00, 0x00, 0x00, 0x00, 0x00, 0x00, 0x00, 0x00, 
  0x00, 0x00, 0x00, 0x00, 0x00, 0x00, 0x00, 0x00, 0x00, 0x00, 0x00, 0x00, 
  0x00, 0x00, 0x00, 0x00, 0x00, 0x00, 0x00, 0x00, 0x00, 0x00, 0x00, 0x00, 
  0x00, 0x00, 0x00, 0x00, 0x00, 0x00, 0x00, 0x00, 0x00, 0x00, 0x00, 0x00, 
  0x00, 0x00, 0x00, 0x00, 0x00, 0x00, 0x00, 0x00, 0x00, 0x00, 0x00, 0x00, 
  0x00, 0x00, 0x70, 0x00, 0x00, 0x00, 0x00, 0x00, 0x00, 0x00, 0xF0, 0x00, 
  0x50, 0x01, 0x00, 0x00, 0x00, 0x00, 0xF0, 0x01, 0xA0, 0x00, 0x00, 0x00, 
  0x00, 0x00, 0xE0, 0x00, 0x50, 0xC5, 0x01, 0x00, 0x00, 0x00, 0xF0, 0x01, 
  0xA0, 0x82, 0x02, 0x00, 0x00, 0x00, 0xF0, 0x03, 0xC0, 0xF7, 0x01, 0x70, 
  0x07, 0xC0, 0xF3, 0x03, 0x80, 0xAA, 0x00, 0xE8, 0x0E, 0x80, 0xE2, 0x02, 
  0xC0, 0xFF, 0x00, 0xFC, 0x7F, 0xC0, 0xFF, 0x07, 0x80, 0x2A, 0x00, 0xFE, 
  0xFF, 0x80, 0xFF, 0x03, 0xC0, 0x7F, 0xC0, 0xFF, 0xFF, 0x03, 0xFF, 0x03, 
  0x80, 0x6E, 0x80, 0xEE, 0xEE, 0x02, 0xEE, 0x02, 0x00, 0x7F, 0xC0, 0xFF, 
  0xFF, 0x07, 0xFF, 0x03, 0x00, 0x3B, 0xE0, 0xFF, 0xFF, 0x0F, 0xFF, 0x01, 
  0x00, 0x7F, 0xF0, 0xFF, 0xFF, 0x1F, 0xFF, 0x01, 0x00, 0x2E, 0xE0, 0xEE, 
  0xEE, 0x2E, 0x6E, 0x00, 0x00, 0x1C, 0xF8, 0xFF, 0xFF, 0x7F, 0x7C, 0x00, 
  0x00, 0x00, 0xF8, 0xFF, 0xFF, 0x3F, 0x00, 0x00, 0x00, 0x00, 0xF8, 0xFF, 
  0xFF, 0x7F, 0x00, 0x00, 0x00, 0x00, 0xE8, 0xEE, 0xEE, 0x2E, 0x00, 0x00, 
  0x00, 0x00, 0xF8, 0xFF, 0xFF, 0x7F, 0x00, 0x00, 0x00, 0x00, 0xF8, 0xFF, 
  0xFF, 0x3F, 0x00, 0x00, 0x00, 0x00, 0xF8, 0xFF, 0xFF, 0x7F, 0x00, 0x00, 
  0x00, 0x00, 0xE8, 0xEE, 0xEE, 0x2E, 0x00, 0x00, 0x00, 0x00, 0xF8, 0xFF, 
  0xFF, 0x7F, 0x00, 0x00, 0x00, 0x00, 0xF8, 0xFF, 0xFF, 0x3F, 0x00, 0x00, 
  0x00, 0x00, 0xF0, 0xFF, 0xFF, 0x3F, 0x00, 0x00, 0x00, 0x00, 0xE0, 0xEE, 
  0xEE, 0x0E, 0x00, 0x00, 0x00, 0x00, 0xF0, 0xFF, 0xFF, 0x1F, 0x00, 0x00, 
  0x00, 0x00, 0xF0, 0xFF, 0xFF, 0x3F, 0x00, 0x00, 0x00, 0x00, 0xF0, 0xFF, 
  0xFF, 0x1F, 0x00, 0x00, 0x00, 0x00, 0xA0, 0xEE, 0xEE, 0x00, 0x00, 0x00, 
  0x00, 0x00, 0x80, 0xFF, 0x7F, 0x00, 0x00, 0x00, 0x00, 0x00, 0x00, 0xBE, 
  0x23, 0x00, 0x00, 0x00, 0x00, 0x00, 0x00, 0x14, 0x07, 0x00, 0x00, 0x00, 
  0x00, 0x00, 0x00, 0x00, 0x00, 0x00, 0x00, 0x00, 0x00, 0x00, 0x00, 0x00, 
  0x00, 0x00, 0x00, 0x00, 0x00, 0x00, 0x00, 0x00, 0x00, 0x00, 0x00, 0x00, 
  0x00, 0x00, 0x00, 0x00, 0x00, 0x00, 0x00, 0x00, 0x00, 0x00, 0x00, 0x00, 
  0x00, 0x00, 0x00, 0x00, 0x00, 0x00, 0x00, 0x00, 0x00, 0x00, 0x00, 0x00, 
  0x00, 0x00, 0x00, 0x00, 0x00, 0x00, 0x00, 0x00, 0x00, 0x00, 0x00, 0x00, 
  0x00, 0x00, 0x00, 0x00, 0x00, 0x00, 0x00, 0x00, 0x00, 0x00, 0x00, 0x00, 
  0x00, 0x00, 0x00, 0x00, 0x00, 0x00, 0x00, 0x00, 0x00, 0x00, 0x00, 0x00, 
  0x00, 0x00, 0x00, 0x00, 0x00, 0x00, 0x00, 0x00, 0x00, 0x00, 0x00, 0x00, 
  0x00, 0x00, 0x00, 0x00, 0x00, 0x00, 0x00, 0x00, };
