#define 73f768c5f52646138c8d24201f64a706kt9NgpDnYuSjVARt_width 64
#define 73f768c5f52646138c8d24201f64a706kt9NgpDnYuSjVARt_height 61
static char 73f768c5f52646138c8d24201f64a706kt9NgpDnYuSjVARt_bits[] = {
  0x00, 0x00, 0x00, 0x00, 0x00, 0x00, 0x00, 0x00, 0x00, 0x00, 0x00, 0x00, 
  0x00, 0x00, 0x00, 0x00, 0x00, 0x00, 0x00, 0x00, 0x00, 0x00, 0x00, 0x00, 
  0x00, 0x00, 0x00, 0x00, 0x00, 0x00, 0x00, 0x00, 0x00, 0x00, 0x00, 0x00, 
  0x00, 0x00, 0x00, 0x00, 0x00, 0x00, 0x00, 0x00, 0x00, 0x00, 0x00, 0x00, 
  0x00, 0x00, 0x00, 0x00, 0x00, 0x00, 0x00, 0x00, 0x00, 0x00, 0x00, 0x00, 
  0x00, 0x00, 0x00, 0x00, 0x00, 0x00, 0x00, 0x00, 0x00, 0x00, 0x00, 0x00, 
  0x00, 0x00, 0x00, 0x00, 0x00, 0x00, 0x00, 0x00, 0x00, 0x00, 0x00, 0x00, 
  0x00, 0x00, 0x00, 0x00, 0x00, 0x00, 0x00, 0x00, 0x00, 0x00, 0x00, 0x00, 
  0x00, 0x00, 0x00, 0x00, 0x00, 0x00, 0x00, 0x00, 0x00, 0x00, 0x00, 0x00, 
  0x00, 0x00, 0x70, 0x00, 0x20, 0x00, 0x00, 0x00, 0x00, 0x00, 0xF0, 0x00, 
  0xF0, 0x01, 0x00, 0x00, 0x00, 0x00, 0xF0, 0x01, 0xE0, 0x02, 0x00, 0x00, 
  0x00, 0x00, 0xE0, 0x00, 0xF0, 0xC7, 0x01, 0x00, 0x00, 0x00, 0xF0, 0x01, 
  0xE0, 0xEF, 0x03, 0x00, 0x00, 0x00, 0xF0, 0x03, 0xE0, 0xFF, 0x01, 0x70, 
  0x07, 0xC0, 0xF3, 0x03, 0xC0, 0xEE, 0x00, 0xE8, 0x0E, 0xC0, 0xE2, 0x02, 
  0xC0, 0xFF, 0x00, 0xFC, 0xFF, 0xC0, 0xFF, 0x07, 0x80, 0xFF, 0x00, 0xFE, 
  0xFF, 0x83, 0xFF, 0x03, 0xC0, 0x7F, 0xC0, 0xFF, 0xFF, 0x87, 0xFF, 0x03, 
  0x80, 0x6E, 0xC0, 0xEE, 0xEE, 0x8E, 0xEE, 0x02, 0x80, 0x7F, 0xE0, 0xFF, 
  0xFF, 0x9F, 0xFF, 0x03, 0x00, 0x7F, 0xE0, 0xFF, 0xFF, 0xBF, 0xFF, 0x01, 
  0x00, 0x7F, 0xF0, 0xFF, 0xFF, 0x7F, 0xFF, 0x01, 0x00, 0x2E, 0xE0, 0xEE, 
  0xEE, 0x2E, 0xEE, 0x00, 0x00, 0x1C, 0xF8, 0xFF, 0xFF, 0x7F, 0x5C, 0x00, 
  0x00, 0x00, 0xF8, 0xFF, 0xFF, 0xFF, 0x00, 0x00, 0x00, 0x00, 0xF8, 0xFF, 
  0xFF, 0x7F, 0x00, 0x00, 0x00, 0x00, 0xE8, 0xEE, 0xEE, 0xEE, 0x00, 0x00, 
  0x00, 0x00, 0xFC, 0xFF, 0xFF, 0xFF, 0x00, 0x00, 0x00, 0x00, 0xF8, 0xFF, 
  0xFF, 0xFF, 0x00, 0x00, 0x00, 0x00, 0xFC, 0xFF, 0xFF, 0x7F, 0x00, 0x00, 
  0x00, 0x00, 0xE8, 0xEE, 0xEE, 0x6E, 0x00, 0x00, 0x00, 0x00, 0xFC, 0xFF, 
  0xFF, 0x7F, 0x00, 0x00, 0x00, 0x00, 0xF8, 0xFF, 0xFF, 0x2F, 0x00, 0x00, 
  0x00, 0x00, 0xFC, 0xFF, 0xFF, 0x1F, 0x00, 0x00, 0x00, 0x00, 0xE8, 0xEE, 
  0xEE, 0x0E, 0x00, 0x00, 0x00, 0x00, 0xF8, 0xFF, 0xFF, 0x1F, 0x00, 0x00, 
  0x00, 0x00, 0xF8, 0xFF, 0xFF, 0x2F, 0x00, 0x00, 0x00, 0x00, 0xF0, 0xFF, 
  0x7F, 0x07, 0x00, 0x00, 0x00, 0x00, 0xE0, 0xEE, 0x2E, 0x00, 0x00, 0x00, 
  0x00, 0x00, 0xC0, 0xFF, 0x07, 0x00, 0x00, 0x00, 0x00, 0x00, 0x00, 0xAA, 
  0x02, 0x00, 0x00, 0x00, 0x00, 0x00, 0x00, 0xB7, 0x13, 0x00, 0x00, 0x00, 
  0x00, 0x00, 0x00, 0x00, 0x00, 0x00, 0x00, 0x00, 0x00, 0x00, 0x00, 0x00, 
  0x00, 0x00, 0x00, 0x00, 0x00, 0x00, 0x00, 0x00, 0x00, 0x00, 0x00, 0x00, 
  0x00, 0x00, 0x00, 0x00, 0x00, 0x00, 0x00, 0x00, 0x00, 0x00, 0x00, 0x00, 
  0x00, 0x00, 0x00, 0x00, 0x00, 0x00, 0x00, 0x00, 0x00, 0x00, 0x00, 0x00, 
  0x00, 0x00, 0x00, 0x00, 0x00, 0x00, 0x00, 0x00, 0x00, 0x00, 0x00, 0x00, 
  0x00, 0x00, 0x00, 0x00, 0x00, 0x00, 0x00, 0x00, 0x00, 0x00, 0x00, 0x00, 
  0x00, 0x00, 0x00, 0x00, 0x00, 0x00, 0x00, 0x00, 0x00, 0x00, 0x00, 0x00, 
  0x00, 0x00, 0x00, 0x00, 0x00, 0x00, 0x00, 0x00, 0x00, 0x00, 0x00, 0x00, 
  0x00, 0x00, 0x00, 0x00, 0x00, 0x00, 0x00, 0x00, };
